<?xml version="1.0" encoding="UTF-8" standalone="no"?>
<!-- Generator: Adobe Illustrator 19.1.0, SVG Export Plug-In . SVG Version: 6.00 Build 0)  -->

<svg
   version="1.1"
   id="Layer_1"
   x="0px"
   y="0px"
   viewBox="0 0 256 256"
   style="enable-background:new 0 0 256 256;"
   xml:space="preserve"
   sodipodi:docname="orcid.svg"
   inkscape:version="1.1.2 (0a00cf5339, 2022-02-04)"
   xmlns:inkscape="http://www.inkscape.org/namespaces/inkscape"
   xmlns:sodipodi="http://sodipodi.sourceforge.net/DTD/sodipodi-0.dtd"
   xmlns="http://www.w3.org/2000/svg"
   xmlns:svg="http://www.w3.org/2000/svg"><defs
   id="defs17" /><sodipodi:namedview
   id="namedview15"
   pagecolor="#ffffff"
   bordercolor="#666666"
   borderopacity="1.0"
   inkscape:pageshadow="2"
   inkscape:pageopacity="0.0"
   inkscape:pagecheckerboard="0"
   showgrid="false"
   inkscape:zoom="2.515625"
   inkscape:cx="127.80124"
   inkscape:cy="128"
   inkscape:window-width="1920"
   inkscape:window-height="1171"
   inkscape:window-x="0"
   inkscape:window-y="0"
   inkscape:window-maximized="1"
   inkscape:current-layer="Layer_1" />
<style
   type="text/css"
   id="style2">
	.st0{fill:#A6CE39;}
	.st1{fill:#FFFFFF;}
</style>
<path
   class="st0"
   d="M256,128c0,70.7-57.3,128-128,128C57.3,256,0,198.7,0,128C0,57.3,57.3,0,128,0C198.7,0,256,57.3,256,128z"
   id="path4"
   style="fill:none;stroke:#000000;stroke-opacity:1;fill-opacity:1;stroke-width:15;stroke-miterlimit:4;stroke-dasharray:none" />
<g
   id="g12"
   style="fill:#000000">
	<path
   class="st1"
   d="M 86.3,186.2 H 70.9 V 79.1 h 15.4 v 48.4 z"
   id="path6"
   style="fill:#000000" />
	<path
   class="st1"
   d="m 108.9,79.1 h 41.6 c 39.6,0 57,28.3 57,53.6 0,27.5 -21.5,53.6 -56.8,53.6 h -41.8 z m 15.4,93.3 h 24.5 c 34.9,0 42.9,-26.5 42.9,-39.7 C 191.7,111.2 178,93 148,93 h -23.7 z"
   id="path8"
   style="fill:#000000" />
	<path
   class="st1"
   d="m 88.7,56.8 c 0,5.5 -4.5,10.1 -10.1,10.1 -5.6,0 -10.1,-4.6 -10.1,-10.1 0,-5.6 4.5,-10.1 10.1,-10.1 5.6,0 10.1,4.6 10.1,10.1 z"
   id="path10"
   style="fill:#000000" />
</g>
</svg>
